<svg xmlns="http://www.w3.org/2000/svg" width="1000" height="1000" viewBox="0 0 1000 1000" version="1.1">
	<path d="M 955.989 56.350 C 926.934 75.825, 882.840 98.333, 846.589 112.194 C 830.427 118.373, 830 118.602, 830 121.086 C 830 123.599, 831.378 124.170, 855.250 131.547 C 865.563 134.733, 874 137.719, 874 138.182 C 874 138.645, 852.402 164.408, 826.004 195.433 L 778.007 251.843 753.877 240.422 C 740.606 234.140, 728.895 229, 727.852 229 C 726.810 229, 725.516 230.012, 724.978 231.250 C 724.439 232.488, 720.590 246.550, 716.424 262.500 C 704.878 306.712, 675.108 417.149, 664.426 455.403 C 640.901 539.643, 619.257 608.972, 615.158 613.217 C 613.546 614.886, 568.109 592.731, 545 579.008 C 497.574 550.844, 450.760 513.556, 417.711 477.619 L 407.704 466.738 408.298 445.119 C 408.975 420.462, 410.150 407.490, 413.533 387.339 C 427.471 304.300, 468.591 238.472, 535 192.888 C 592.841 153.185, 678.393 122.970, 759.618 113.557 C 774.420 111.842, 803.009 110.040, 820.500 109.720 L 832.500 109.500 832.500 107.026 C 832.500 104.822, 831.269 104.033, 821.191 99.779 C 793.379 88.040, 754.964 76.390, 720 69.091 C 600.425 44.132, 487.215 55.550, 388.278 102.548 C 356.497 117.645, 330.642 133.593, 310 150.833 C 255.142 196.648, 209.569 254.949, 178.936 318.500 C 153.512 371.244, 139.310 423.990, 134.925 481.952 C 133.376 502.436, 134.240 551.998, 136.460 570 C 139 590.587, 143.441 615.781, 147.613 633.271 L 151.376 649.041 147.303 653.271 C 114.824 687.001, 13 796.624, 13 797.861 C 13 799.923, 48.958 836, 51.013 836 C 51.834 836, 79.503 809, 112.500 776 C 145.497 743, 172.742 716, 173.046 716 C 173.350 716, 174.200 717.688, 174.935 719.750 C 176.680 724.648, 187.652 750.066, 192.899 761.366 C 202.057 781.090, 231.823 812.387, 262 834.018 C 313.899 871.220, 376.871 892.292, 461 900.608 C 485.220 903.002, 545.431 903.018, 573.500 900.639 C 633.454 895.557, 682.371 887.469, 743.500 872.532 C 788.939 861.429, 845.331 844.304, 879.495 831.234 C 889.187 827.526, 891.762 825.359, 889.344 822.946 C 888.880 822.483, 882.425 821.175, 875 820.039 C 843.577 815.232, 801.228 806.581, 766.500 797.874 C 590.194 753.672, 477.322 688.205, 436.128 606.253 C 432.548 599.130, 425.590 581.020, 426.227 580.482 C 426.377 580.356, 475.968 610.796, 536.429 648.126 C 596.889 685.457, 647.161 716, 648.143 716 C 649.126 716, 650.335 715.212, 650.831 714.250 C 651.327 713.288, 674.792 625.425, 702.975 519 C 731.158 412.575, 754.535 325.155, 754.925 324.733 C 755.315 324.311, 761.863 329.620, 769.475 336.532 C 779.290 345.442, 783.917 349.011, 785.382 348.799 C 786.854 348.586, 805.325 322.965, 849.760 259.500 C 884.032 210.550, 912.643 169.929, 913.340 169.232 C 914.363 168.208, 915.731 172.930, 920.437 193.732 C 923.643 207.904, 926.672 220.287, 927.168 221.250 C 928.714 224.248, 931.793 223.328, 933.864 219.250 C 936.697 213.672, 945.678 189.368, 950.584 174 C 963.706 132.900, 970.010 96.420, 968.660 69.388 C 967.994 56.050, 966.970 52, 964.264 52 C 963.282 52, 959.558 53.957, 955.989 56.350 M 558.500 64.005 C 490.931 69.589, 424.527 89.084, 368.532 119.776 C 352.975 128.303, 334.484 139.755, 326.672 145.701 C 307.847 160.031, 276.831 189.284, 259.560 209 C 178.249 301.821, 137.456 410.554, 140.288 526.921 C 141.140 561.920, 145.183 594.010, 153.130 628.843 L 156.402 643.185 163.482 635.843 C 167.377 631.804, 188.005 609.938, 209.322 587.250 C 234.424 560.535, 248.762 546, 250.013 546 C 251.075 546, 263.276 552.305, 277.127 560.012 C 290.978 567.718, 302.457 573.877, 302.636 573.697 C 302.815 573.518, 318.983 543.025, 338.563 505.936 C 358.144 468.846, 374.813 437.488, 375.605 436.250 C 378.329 431.996, 380.460 433.430, 391.210 446.750 L 401.500 459.500 402.135 439.500 C 403.866 384.934, 414.901 338.195, 436.045 295.861 C 450.134 267.655, 465.541 246.362, 488.448 223.439 C 527.466 184.394, 577.963 155.323, 646.500 132.449 C 697.500 115.428, 746.482 106.195, 795.614 104.341 L 813.445 103.669 808.973 101.736 C 799.580 97.677, 762.739 86.035, 745.500 81.678 C 713.779 73.660, 688.244 69.015, 656 65.397 C 639.476 63.542, 575.199 62.624, 558.500 64.005 M 622.171 220.750 C 621.676 221.713, 621.262 225.890, 621.252 230.033 C 621.224 240.490, 619.480 248.153, 615 257.500 C 608.901 270.226, 600.317 277.993, 587.366 282.503 C 576.195 286.394, 576.133 289.665, 587.203 291.179 C 604.851 293.593, 618.396 306.168, 625.197 326.455 C 628.195 335.395, 630.254 337.662, 632.559 334.559 C 633.351 333.491, 634 331.343, 634 329.784 C 634 325.007, 637.783 315.846, 642.704 308.706 C 648.269 300.632, 662.068 287.066, 670.626 281.254 C 676.963 276.951, 678.352 275.188, 677.059 273.095 C 676.504 272.197, 674.066 272.051, 667.901 272.547 C 657.792 273.361, 652.734 272.197, 646.792 267.690 C 638.281 261.233, 632 248.252, 629.099 231.124 C 628.202 225.831, 627.112 220.938, 626.675 220.250 C 625.535 218.454, 623.219 218.711, 622.171 220.750 M 625.642 249 C 625.327 249.825, 624.155 252.997, 623.038 256.049 C 619.093 266.828, 611.609 276.410, 602.321 282.575 L 596.784 286.250 602.901 289.186 C 611.290 293.212, 620.205 301.746, 625.417 310.739 L 629.712 318.149 632.466 312.884 C 633.980 309.988, 637.009 305.196, 639.196 302.234 C 643.385 296.565, 658.761 281, 660.173 281 C 660.628 281, 661 280.550, 661 280 C 661 279.450, 659.538 279, 657.750 278.999 C 655.962 278.999, 651.800 277.715, 648.500 276.145 C 639.266 271.755, 631.637 262.645, 627.488 251.055 C 626.629 248.657, 626.028 247.988, 625.642 249 M 579.171 464.750 C 578.676 465.712, 578.262 469.890, 578.252 474.033 C 578.224 484.490, 576.480 492.153, 572 501.500 C 565.901 514.226, 557.317 521.993, 544.366 526.503 C 533.195 530.394, 533.133 533.665, 544.203 535.179 C 561.851 537.593, 575.396 550.168, 582.197 570.455 C 585.195 579.395, 587.254 581.662, 589.559 578.559 C 590.351 577.491, 591 575.343, 591 573.784 C 591 569.007, 594.783 559.846, 599.704 552.706 C 605.269 544.632, 619.068 531.066, 627.626 525.254 C 633.963 520.951, 635.352 519.188, 634.059 517.095 C 633.504 516.197, 631.066 516.051, 624.901 516.547 C 614.792 517.361, 609.734 516.197, 603.792 511.690 C 595.281 505.233, 589 492.252, 586.099 475.124 C 585.202 469.831, 584.112 464.938, 583.675 464.250 C 582.535 462.454, 580.219 462.711, 579.171 464.750 M 866.667 481.667 C 866.300 482.033, 865.995 485.296, 865.988 488.917 C 865.955 507.481, 855.146 523.252, 836.117 532.505 C 829.672 535.639, 828 536.898, 828 538.619 C 828 541.107, 830.168 542.247, 833.373 541.443 C 837.059 540.517, 849.291 543.618, 856.725 547.362 C 865.668 551.865, 877.579 560.899, 886.473 569.924 C 893.682 577.239, 894.970 577.946, 896.883 575.641 C 897.731 574.620, 897.610 573.191, 896.398 569.891 C 893.897 563.080, 894.090 552.475, 896.817 546.862 C 902.202 535.778, 917.947 525.802, 937.647 520.991 C 942.190 519.882, 943.875 517.446, 941.643 515.214 C 940.436 514.007, 938.830 513.968, 931.362 514.962 C 906.521 518.267, 884.930 508.524, 874.994 489.523 C 873.274 486.235, 871.392 482.973, 870.811 482.273 C 869.664 480.890, 867.727 480.607, 866.667 481.667 M 582.642 493 C 582.327 493.825, 581.155 496.997, 580.038 500.049 C 576.093 510.828, 568.609 520.410, 559.321 526.575 L 553.784 530.250 559.901 533.186 C 568.290 537.212, 577.205 545.746, 582.417 554.739 L 586.712 562.149 589.466 556.884 C 590.980 553.988, 594.009 549.196, 596.196 546.234 C 600.385 540.565, 615.761 525, 617.173 525 C 617.628 525, 618 524.550, 618 524 C 618 523.450, 616.538 523, 614.750 522.999 C 612.962 522.999, 608.800 521.715, 605.500 520.145 C 596.266 515.755, 588.637 506.645, 584.488 495.055 C 583.629 492.657, 583.028 491.988, 582.642 493 M 870.095 504.915 C 866.657 516.232, 858.471 526.583, 846.986 534.135 L 844.500 535.769 848.968 536.982 C 858.508 539.571, 874.482 549.433, 884.132 558.691 L 887.764 562.176 888.151 555.338 C 888.795 543.945, 894.525 535.138, 906.507 527.124 L 913.900 522.179 906.700 520.573 C 893.746 517.683, 881.361 510.335, 875.105 501.827 L 872.223 497.909 870.095 504.915 M 353 590.740 C 319.517 639.555, 321.403 637, 318.868 637 C 317.703 637, 305.691 633.379, 292.175 628.954 L 267.601 620.908 223.300 665.200 C 198.935 689.560, 179 710.248, 179 711.172 C 179 713.186, 190.094 740.106, 197.268 755.500 C 203.648 769.191, 212.607 780.826, 230.402 798.532 C 285.024 852.881, 357.003 883.350, 455 893.606 C 475.013 895.700, 533.867 896.558, 558.157 895.109 C 630.314 890.806, 706.659 877.255, 786.805 854.526 C 817.808 845.734, 866.521 830.017, 871.734 827.123 C 872.412 826.747, 863.412 824.729, 851.734 822.639 C 717.743 798.661, 600.790 757.653, 525.516 708.255 C 469.294 671.359, 433.675 628.989, 419.995 582.733 L 417.698 574.965 399.014 563.483 C 388.738 557.167, 380.143 552.024, 379.915 552.053 C 379.687 552.082, 367.575 569.491, 353 590.740" stroke="none" fill="black" fill-rule="evenodd"/>
</svg>